<svg xmlns="http://www.w3.org/2000/svg" viewBox="0 0 500 125"><defs><style>.cls-1{fill:#fff;}</style></defs><g id="レイヤー_4" data-name="レイヤー 4"><path class="cls-1" d="M93.9,67.79,68.06,82.13a.8.8,0,0,1-1.18-.58.83.83,0,0,1,0-.27L72.1,54a.71.71,0,0,1,.14-.32.8.8,0,0,1,1.07-.21L93.94,66.41A.8.8,0,0,1,93.9,67.79Z"/><path class="cls-1" d="M77.24,14.77A47.73,47.73,0,1,0,125,62.5,47.73,47.73,0,0,0,77.24,14.77Zm27,61.9C98.2,89.8,83,94,71.59,90.33a15.3,15.3,0,0,1-5.76-3.27l0,.22-.13.65a.8.8,0,0,1-.4.55L48.35,97.85A.8.8,0,0,1,47.17,97L60.6,27.7a.8.8,0,0,1,.79-.65h15a.8.8,0,0,1,.79.95L73.4,47.6c6.75-5.25,15.31-6.91,22.33-3.64C107.49,49.44,110.26,63.53,104.23,76.67Z"/><path class="cls-1" d="M436.69,94.14A34.93,34.93,0,0,1,426,92.45a29.78,29.78,0,0,1-9.63-5.24A26.57,26.57,0,0,1,409.49,78a31.67,31.67,0,0,1-2.62-13.43,35.49,35.49,0,0,1,8.28-22.47,31.87,31.87,0,0,1,10.56-8.2,33.82,33.82,0,0,1,15-3.13,34.39,34.39,0,0,1,10.56,1.69,28,28,0,0,1,9.63,5.33,25.16,25.16,0,0,1,7,9.21,31.22,31.22,0,0,1,2.62,13.35,34.77,34.77,0,0,1-2.12,11.57,34.51,34.51,0,0,1-6.25,11A31.16,31.16,0,0,1,451.56,91,33.14,33.14,0,0,1,436.69,94.14Zm.17-11.83a22,22,0,0,0,9.71-1.94,18.24,18.24,0,0,0,6.51-5.24,21.32,21.32,0,0,0,3.55-6.93A23.59,23.59,0,0,0,457.81,61a18.31,18.31,0,0,0-1.35-7,17.85,17.85,0,0,0-3.63-5.83,16.57,16.57,0,0,0-5.58-4.06,16.41,16.41,0,0,0-7.1-1.52,21.19,21.19,0,0,0-9.71,2A17.69,17.69,0,0,0,424,49.78a22.33,22.33,0,0,0-3.47,6.93,27.49,27.49,0,0,0-1,7.18,19.54,19.54,0,0,0,4.81,12.93,17.77,17.77,0,0,0,5.41,4.06A17.32,17.32,0,0,0,436.86,82.31Z"/><path class="cls-1" d="M363.56,31.37h38.86L401,43H374.79L373.1,57.39h22.65l-1.52,11.74H371.58l-2.95,24.42H356Z"/><path class="cls-1" d="M339.52,96.08h-.34L297.27,53.5l3.38,2-4.39,38H283.84l7.94-64.63h.51l40.89,42.41-2.53-1.18,4.47-38.78h12.34Z"/><path class="cls-1" d="M262.73,31.37h12.68L267.8,93.55H255.13Z"/><path class="cls-1" d="M227.1,31.37q8.79,0,13.86,3.29T246,45.39a23.4,23.4,0,0,1-1,6.68,15.27,15.27,0,0,1-3.3,6.08,13,13,0,0,1-6.34,3.8l-.42-.42a15.47,15.47,0,0,1,5,2.11,11.9,11.9,0,0,1,3.88,4.14,12.91,12.91,0,0,1,1.52,6.59,18.27,18.27,0,0,1-2,8.87A16.32,16.32,0,0,1,238,89.16a23.54,23.54,0,0,1-7.52,3.38,36,36,0,0,1-8.53,1h-20.7l7.61-62.18ZM225,56.8a8.68,8.68,0,0,0,3.55-.68,7.13,7.13,0,0,0,2.54-1.86,8.32,8.32,0,0,0,1.52-2.62,9,9,0,0,0,.5-3,5.1,5.1,0,0,0-1.94-4.4,8.31,8.31,0,0,0-5.24-1.52h-5.74l-1.78,14Zm-2.62,25.34a14.5,14.5,0,0,0,5.33-.93,8.74,8.74,0,0,0,3.8-2.78,7.36,7.36,0,0,0,1.43-4.65,5.07,5.07,0,0,0-1.43-3.89A7.21,7.21,0,0,0,228,68a18,18,0,0,0-4.65-.59h-6.16l-1.78,14.7Z"/><path class="cls-1" d="M173.23,31.37q8.79,0,13.85,3.29t5.07,10.73a23.05,23.05,0,0,1-1,6.68,15.27,15.27,0,0,1-3.3,6.08,13,13,0,0,1-6.33,3.8l-.42-.42a15.51,15.51,0,0,1,5,2.11A11.93,11.93,0,0,1,190,67.78a13,13,0,0,1,1.52,6.59,18.28,18.28,0,0,1-2,8.87,16.39,16.39,0,0,1-5.32,5.92,23.73,23.73,0,0,1-7.52,3.38,36.1,36.1,0,0,1-8.54,1h-20.7L155,31.37ZM171.12,56.8a8.63,8.63,0,0,0,3.54-.68,7,7,0,0,0,2.54-1.86,8.32,8.32,0,0,0,1.52-2.62,8.72,8.72,0,0,0,.51-3,5.1,5.1,0,0,0-1.95-4.4,8.28,8.28,0,0,0-5.23-1.52H166.3l-1.77,14ZM168.5,82.14a14.45,14.45,0,0,0,5.32-.93,8.69,8.69,0,0,0,3.8-2.78,7.37,7.37,0,0,0,1.44-4.65,5.08,5.08,0,0,0-1.44-3.89A7.17,7.17,0,0,0,174.07,68a17.93,17.93,0,0,0-4.64-.59h-6.17l-1.78,14.7Z"/></g></svg>